<svg xmlns="http://www.w3.org/2000/svg" xmlns:xlink="http://www.w3.org/1999/xlink" viewBox="0 0 447.35 121.03"><defs><style>.cls-1{fill:none;}.cls-2{fill:#41508e;}.cls-3{clip-path:url(#clip-path);}.cls-4{fill:#fff;}.cls-5{fill:#5d4e93;}.cls-6{fill:#ac4560;}.cls-7{fill:#ae4342;}.cls-8{fill:#c87a34;}</style><clipPath id="clip-path"><rect class="cls-1" x="19.83" y="18.48" width="84.98" height="85.2"/></clipPath></defs><title>logo</title><g id="Layer_1" data-name="Layer 1"><rect class="cls-2" x="333.44" y="34.19" width="5.36" height="5.36"/><path class="cls-2" d="M423.86,49,403.69,76.55,383.38,49H358.94V34.22h-5.33V49h-54a11.2,11.2,0,0,0-11.19,11.19V76.35H279.6a10.49,10.49,0,0,0,1.12-4.86V59.76a10.09,10.09,0,0,0-3.35-7.57A11.07,11.07,0,0,0,269.43,49H235.91V54.3h33.52a5.88,5.88,0,0,1,4.25,1.77,5,5,0,0,1,1.71,3.69V63a13.42,13.42,0,0,0-6-1.27H243.49a12.09,12.09,0,0,0-8.18,2.68,8.83,8.83,0,0,0-3.12,7V72a9.5,9.5,0,0,0,1,4.39H222.94a5.81,5.81,0,0,1-4.26-1.78,5.75,5.75,0,0,1-1.74-4.22V34.22h-5.33V70.35a10.8,10.8,0,0,0,1.72,6H163.22a9.49,9.49,0,0,1-9.45-9.45V49a9.14,9.14,0,0,1,2.78-6.7,9,9,0,0,1,6.67-2.78h31.11v-5.3H163.22A14.75,14.75,0,0,0,148.44,49V66.9a14.75,14.75,0,0,0,14.78,14.74H293.87V76.35h-.11V60.16A5.63,5.63,0,0,1,295.47,56a5.71,5.71,0,0,1,4.15-1.71h33.82V81.64h5.33V54.3h14.84v16a11.32,11.32,0,0,0,11.3,11.29h5.59V76.35h-5.59a6,6,0,0,1-6-6v-16H380.7L400.37,81l-5.63,7.68A5.71,5.71,0,0,1,390.92,91a8,8,0,0,1-1.44.13,6.66,6.66,0,0,1-3.25-.83L383.91,89l-2.54,4.7L383.71,95a12,12,0,0,0,5.83,1.44A11.06,11.06,0,0,0,399,91.87l8.38-11.4L430.47,49ZM243.49,76.35a8.59,8.59,0,0,1-3.66-.71A3.78,3.78,0,0,1,237.52,72v-.47a3.8,3.8,0,0,1,2.31-3.69,8.47,8.47,0,0,1,3.66-.7h25.94a8.61,8.61,0,0,1,3.65.7,3.78,3.78,0,0,1,2.31,3.66q0,4.89-6,4.89Z"/><g class="cls-3"><path class="cls-4" d="M62.31,18.48A42.5,42.5,0,1,0,104.81,61a42.54,42.54,0,0,0-42.5-42.5ZM98.56,61a36.12,36.12,0,0,1-7.51,22,5.77,5.77,0,0,1-1.41-6.74C91,73.36,91.33,66.59,91,64s-1.66-9-5.37-9-6.25-1.29-8.46-5.68c-4.58-9.16,8.59-10.92,4-16-1.28-1.42-7.89,5.87-8.86-3.84-.07-.69.6-1.73,1.49-2.8A36.29,36.29,0,0,1,98.56,61ZM57.33,25.1c-.86,1.68-3.15,2.37-4.54,3.64-3,2.74-4.32,2.36-6,5s-6.93,6.42-6.93,8.33,2.67,4.14,4,3.7a14.13,14.13,0,0,1,6.93.32c2.08.73,17.33,1.46,12.47,14.35-1.54,4.1-8.29,3.41-10.09,10.2A56.53,56.53,0,0,0,52,77.26c-.11,2.15,1.52,10.26-.56,10.26S43.72,80.27,43.72,79,42.26,73,42.26,69.08,35.55,65.2,35.55,60c0-4.73,3.64-7.08,2.82-9.35S31.16,48.26,28.5,48A36.32,36.32,0,0,1,57.33,25.1ZM50.92,95.37c2.17-1.15,2.4-2.64,4.37-2.72,2.26-.1,4.09-.88,6.64-1.44,2.26-.49,6.3-2.78,9.86-3.08,3-.24,8.91.16,10.51,3.06a36.09,36.09,0,0,1-31.38,4.18Zm0,0"/></g></g><g id="Layer_3" data-name="Layer 3"><path class="cls-1" d="M35.35,36.74l0,0a3.64,3.64,0,0,1,0,.57Z"/><path class="cls-1" d="M85.94,33.65V50c0-3.13,2.15-5.66,4.81-5.66s4.81,2.53,4.81,5.67V75.13h0V46.83A36.38,36.38,0,0,0,85.94,33.65Z"/><path class="cls-1" d="M52.68,28.75c1.4-1.26,3.68-1.95,4.55-3.64A36.31,36.31,0,0,0,49,27.28V31.4A22.38,22.38,0,0,0,52.68,28.75Z"/><path class="cls-1" d="M50.9,46.13l-.17-.05A9.87,9.87,0,0,0,49,45.67V86.2h0V50.05A5.2,5.2,0,0,1,50.9,46.13Z"/><path class="cls-1" d="M73.13,88.09A6.55,6.55,0,0,1,68,89c-2,.67-3.89,1.53-5.34,2v6.23a36,36,0,0,0,19.53-6C80.82,88.72,76.28,88.07,73.13,88.09Z"/><path class="cls-2" d="M85.94,50V33.65a36.07,36.07,0,0,0-12.22-7c-.89,1.07-1.56,2.11-1.49,2.8,1,9.7,7.58,2.42,8.86,3.84,4.58,5.07-8.58,6.83-4,16,2.21,4.4,4.75,5.63,8.46,5.68a2.57,2.57,0,0,1,.4,0v-5Z"/><path class="cls-5" d="M90.75,44.38c-2.66,0-4.81,2.53-4.81,5.66h0v5c3.41.5,4.69,6.45,5,9s0,9.39-1.38,12.32A5.77,5.77,0,0,0,90.94,83a36.32,36.32,0,0,0,4.62-7.91V50.05C95.56,46.91,93.41,44.38,90.75,44.38Z"/><path class="cls-5" d="M85.94,96.22v8.48c0,3.13,2.15,5.67,4.81,5.67s4.81-2.54,4.81-5.67V87.27A42.84,42.84,0,0,1,85.94,96.22Z"/><path class="cls-6" d="M95.56,46.83v28.3a36.09,36.09,0,0,0,0-28.3Z"/><path class="cls-6" d="M105.18,25c0-3.84-2.15-6.95-4.81-6.95s-4.81,3.11-4.81,7v9.7a42.34,42.34,0,0,1,0,52.55V92c0,3.84,2.15,7,4.81,7s4.81-3.11,4.81-7V25Z"/><path class="cls-7" d="M110,31.87c-2.65,0-4.81,2.45-4.81,5.48V90.22c0,3,2.16,5.48,4.81,5.48s4.81-2.46,4.81-5.48V37.35C114.8,34.32,112.65,31.87,110,31.87Z"/><path class="cls-8" d="M119.61,14.1c-2.65,0-4.81,2.89-4.81,6.45V82.71c0,3.57,2.16,6.46,4.81,6.46s4.81-2.89,4.81-6.46V20.55C124.42,17,122.27,14.1,119.61,14.1Z"/><path class="cls-2" d="M63.2,60.44c1.6-4.23,1-7.14-.54-9.18V61.42A3.73,3.73,0,0,0,63.2,60.44Z"/><path class="cls-2" d="M73.13,88.09c-.53,0-1,0-1.45.06A16,16,0,0,0,68,89a6.55,6.55,0,0,0,5.13-.9Z"/><path class="cls-2" d="M85.94,25.76V15.24c0-3.84-2.15-7-4.81-7s-4.81,3.11-4.81,6.94a6.83,6.83,0,1,0-13.66,0v3.27A42.26,42.26,0,0,1,85.94,25.76Z"/><path class="cls-5" d="M61.82,91.23c-2.55.56-4.38,1.34-6.64,1.44-2,.08-2.19,1.56-4.37,2.71a35.79,35.79,0,0,0,11.4,1.85h.45V91Q62.21,91.14,61.82,91.23Z"/><path class="cls-5" d="M51.85,77.28a54.11,54.11,0,0,1,1.27-6.64c1.63-6.19,7.37-6.17,9.54-9.22V51.26c-3.08-4-10-4.65-11.76-5.13A5.2,5.2,0,0,0,49,50.05V86.2a4.42,4.42,0,0,0,2.29,1.34C53.37,87.54,51.74,79.43,51.85,77.28Z"/><path class="cls-5" d="M49,101.38v3.32c0,3.13,3.05,5.67,6.83,5.67s6.82-2.54,6.82-5.67v-1.23H62.2A42.32,42.32,0,0,1,49,101.38Z"/><path class="cls-6" d="M42.18,99a7.54,7.54,0,0,0,.84-.06,42.67,42.67,0,0,1-7.33-4.73A6.85,6.85,0,0,0,42.18,99Z"/><path class="cls-6" d="M43.8,45.77c-1.33.44-4-1.81-4-3.71s5.29-5.68,6.93-8.32A6.83,6.83,0,0,1,49,31.4V27.28a36.29,36.29,0,0,0-13.66,9.46v.61h0V48.84c1.45.36,2.6.9,2.91,1.78.82,2.27-2.82,4.62-2.82,9.35,0,5.25,6.71,5.18,6.71,9.13s1.46,8.56,1.46,9.87c0,1,3,5.07,5.4,7.23V45.67A13.86,13.86,0,0,0,43.8,45.77Z"/><path class="cls-6" d="M42.18,18.07a6.89,6.89,0,0,0-6.83,7v3.07A42.73,42.73,0,0,1,47.77,21,6.79,6.79,0,0,0,42.18,18.07Z"/><path class="cls-7" d="M21.7,73.81v8.91h0v7.5c0,3,3.05,5.48,6.82,5.48a7.27,7.27,0,0,0,5.84-2.65A42.63,42.63,0,0,1,21.7,73.81Z"/><path class="cls-7" d="M31,32.23a8.42,8.42,0,0,0-2.44-.36c-3.77,0-6.82,2.45-6.82,5.48V48.18A42.61,42.61,0,0,1,31,32.23Z"/><path class="cls-7" d="M35.35,37.35a3.64,3.64,0,0,0,0-.57A36.33,36.33,0,0,0,28.39,48a49.56,49.56,0,0,1,7,.83V37.35Z"/><path class="cls-8" d="M21.7,73.81a42.46,42.46,0,0,1,0-25.63V20.55a6.65,6.65,0,0,0-6.83-6.45A6.65,6.65,0,0,0,8,20.55V82.72a6.65,6.65,0,0,0,6.83,6.45,6.66,6.66,0,0,0,6.83-6.45h0Z"/></g></svg>